<svg width="25" height="26" viewBox="0 0 25 26" fill="none" xmlns="http://www.w3.org/2000/svg">
<path d="M9.25678 11.3299C9.25678 11.1253 9.33806 10.9291 9.48273 10.7844C9.62741 10.6398 9.82363 10.5585 10.0282 10.5585H14.6569C14.8615 10.5585 15.0578 10.6398 15.2024 10.7844C15.3471 10.9291 15.4284 11.1253 15.4284 11.3299C15.4284 11.5345 15.3471 11.7307 15.2024 11.8754C15.0578 12.0201 14.8615 12.1014 14.6569 12.1014H10.0282C9.82363 12.1014 9.62741 12.0201 9.48273 11.8754C9.33806 11.7307 9.25678 11.5345 9.25678 11.3299ZM10.0282 13.6443C9.82363 13.6443 9.62741 13.7256 9.48273 13.8702C9.33806 14.0149 9.25678 14.2111 9.25678 14.4157C9.25678 14.6203 9.33806 14.8166 9.48273 14.9612C9.62741 15.1059 9.82363 15.1872 10.0282 15.1872H13.114C13.3186 15.1872 13.5149 15.1059 13.6595 14.9612C13.8042 14.8166 13.8855 14.6203 13.8855 14.4157C13.8855 14.2111 13.8042 14.0149 13.6595 13.8702C13.5149 13.7256 13.3186 13.6443 13.114 13.6443H10.0282ZM3.08516 12.8728C3.08555 10.8347 3.75852 8.85371 4.99967 7.23711C6.24082 5.6205 7.98077 4.45866 9.9496 3.93182C11.9184 3.40499 14.0061 3.5426 15.8888 4.32332C17.7714 5.10404 19.3438 6.48422 20.362 8.24977C21.3802 10.0153 21.7873 12.0675 21.5201 14.088C21.253 16.1086 20.3265 17.9844 18.8845 19.4247C17.4424 20.865 15.5654 21.7891 13.5445 22.0537C11.5237 22.3183 9.47197 21.9086 7.7077 20.8882L4.10039 22.0917C3.96712 22.1362 3.82422 22.1434 3.68713 22.1127C3.55004 22.0819 3.42395 22.0143 3.32248 21.9171C3.221 21.8199 3.148 21.6968 3.11134 21.5612C3.07469 21.4256 3.07577 21.2825 3.11447 21.1474L4.21302 17.3041C3.47246 15.9445 3.08468 14.421 3.08516 12.8728ZM12.3426 5.15831C10.9805 5.15822 9.64264 5.51878 8.46504 6.20333C7.28745 6.88787 6.3121 7.87201 5.63813 9.05568C4.96416 10.2394 4.6156 11.5804 4.62789 12.9424C4.64018 14.3045 5.01288 15.639 5.7081 16.8103C5.76159 16.9008 5.79602 17.0013 5.80929 17.1055C5.82255 17.2098 5.81437 17.3157 5.78524 17.4167L4.9999 20.1631L7.55804 19.3114C7.66668 19.2751 7.78203 19.2635 7.89572 19.2774C8.00941 19.2913 8.11859 19.3303 8.21532 19.3916C9.22634 20.0314 10.3723 20.4273 11.5627 20.548C12.7531 20.6687 13.9552 20.5108 15.074 20.0869C16.1929 19.663 17.1978 18.9847 18.0094 18.1055C18.8209 17.2263 19.4169 16.1705 19.7501 15.0213C20.0833 13.8722 20.1447 12.6613 19.9293 11.4844C19.714 10.3074 19.2278 9.19672 18.5093 8.24002C17.7908 7.28332 16.8596 6.50686 15.7893 5.97201C14.7191 5.43716 13.5391 5.15859 12.3426 5.15831Z" fill="#4A4A4A"/>
</svg>
