<svg width="15" height="15" viewBox="0 0 15 15" fill="none" xmlns="http://www.w3.org/2000/svg">
<path d="M13.4617 4.2207H9.88477" stroke="#8E92BC" stroke-width="0.894231" stroke-miterlimit="10" stroke-linecap="round" stroke-linejoin="round"/>
<path d="M3.92319 4.2207H1.53857" stroke="#8E92BC" stroke-width="0.894231" stroke-miterlimit="10" stroke-linecap="round" stroke-linejoin="round"/>
<path d="M6.30773 6.30784C7.46009 6.30784 8.39427 5.37367 8.39427 4.2213C8.39427 3.06894 7.46009 2.13477 6.30773 2.13477C5.15537 2.13477 4.22119 3.06894 4.22119 4.2213C4.22119 5.37367 5.15537 6.30784 6.30773 6.30784Z" stroke="#8E92BC" stroke-width="0.894231" stroke-miterlimit="10" stroke-linecap="round" stroke-linejoin="round"/>
<path d="M13.4618 10.7793H11.0771" stroke="#8E92BC" stroke-width="0.894231" stroke-miterlimit="10" stroke-linecap="round" stroke-linejoin="round"/>
<path d="M5.1155 10.7793H1.53857" stroke="#8E92BC" stroke-width="0.894231" stroke-miterlimit="10" stroke-linecap="round" stroke-linejoin="round"/>
<path d="M8.6925 12.8645C9.84486 12.8645 10.779 11.9303 10.779 10.7779C10.779 9.62558 9.84486 8.69141 8.6925 8.69141C7.54013 8.69141 6.60596 9.62558 6.60596 10.7779C6.60596 11.9303 7.54013 12.8645 8.6925 12.8645Z" stroke="#8E92BC" stroke-width="0.894231" stroke-miterlimit="10" stroke-linecap="round" stroke-linejoin="round"/>
</svg>
