<svg width="25" height="26" viewBox="0 0 25 26" fill="none" xmlns="http://www.w3.org/2000/svg">
<path d="M9.01781 2.80188C10.0778 2.65582 10.9691 3.30435 11.3908 4.14729L12.4281 6.22147C13.0036 7.37248 12.6729 8.72303 11.8007 9.57266C11.2854 10.0741 10.7675 10.647 10.4671 11.1526C10.4471 11.1886 10.4409 11.2306 10.4496 11.2709C10.7273 12.7757 11.7472 14.2626 12.657 15.3287C12.7029 15.3794 12.7626 15.4155 12.8288 15.4326C12.895 15.4497 12.9647 15.447 13.0294 15.4249L15.0737 14.7861C15.6244 14.614 16.2158 14.6228 16.7611 14.8112C17.3064 14.9997 17.777 15.3579 18.104 15.8333L19.5836 17.9856C19.9848 18.5693 20.1879 19.3614 19.8804 20.123C19.6057 20.8035 19.0745 21.7847 18.1081 22.4374C17.1052 23.1142 15.7315 23.3714 13.934 22.7552C11.9257 22.0661 10.0284 20.338 8.45516 18.1281C6.87266 15.9042 5.56993 13.1265 4.77996 10.2299C4.0332 7.4954 4.48373 5.6542 5.54422 4.46873C6.56716 3.32492 8.03292 2.93714 9.01781 2.80188ZM10.2403 4.72228C10.0053 4.25272 9.58611 4.02077 9.19267 4.07478C8.31784 4.19512 7.22238 4.52067 6.50287 5.32556C5.82091 6.08827 5.34878 7.43162 6.01943 9.89153C6.77288 12.6523 8.01338 15.2907 9.50228 17.3823C11.0004 19.4874 12.7028 20.9737 14.3506 21.5389C15.8189 22.0424 16.7627 21.7935 17.3881 21.3718C18.0495 20.9248 18.4563 20.2146 18.6877 19.6417C18.7937 19.3794 18.7479 19.0399 18.5236 18.7139L17.044 16.562C16.8728 16.313 16.6263 16.1253 16.3407 16.0266C16.0551 15.9278 15.7453 15.9232 15.4569 16.0133L13.4125 16.652C12.8015 16.8428 12.1134 16.6726 11.6788 16.1634C10.732 15.0541 9.52542 13.3528 9.18444 11.5039C9.11931 11.1573 9.18218 10.799 9.36136 10.4953C9.7512 9.8401 10.3684 9.17202 10.9027 8.65155C11.4247 8.14342 11.5729 7.38739 11.2776 6.79646L10.2403 4.72228Z" fill="#4A4A4A"/>
</svg>
