<svg width="25" height="25" viewBox="0 0 25 25" fill="none" xmlns="http://www.w3.org/2000/svg">
<path d="M15.4284 19.5404C15.4284 17.2672 12.6655 15.426 9.25675 15.426C5.84796 15.426 3.08513 17.2672 3.08513 19.5404M19.5428 16.4546V13.3688M19.5428 13.3688V10.2829M19.5428 13.3688H16.457M19.5428 13.3688H22.6286M9.25675 12.3402C8.16554 12.3402 7.11902 11.9067 6.34742 11.1351C5.57582 10.3635 5.14234 9.31695 5.14234 8.22574C5.14234 7.13453 5.57582 6.08801 6.34742 5.31641C7.11902 4.54481 8.16554 4.11133 9.25675 4.11133C10.348 4.11133 11.3945 4.54481 12.1661 5.31641C12.9377 6.08801 13.3712 7.13453 13.3712 8.22574C13.3712 9.31695 12.9377 10.3635 12.1661 11.1351C11.3945 11.9067 10.348 12.3402 9.25675 12.3402Z" stroke="#4A4A4A" stroke-width="1.54268" stroke-linecap="round" stroke-linejoin="round"/>
</svg>
