<svg width="13" height="13" viewBox="0 0 13 13" fill="none" xmlns="http://www.w3.org/2000/svg">
<path d="M7.3125 1.08594C7.3125 1.08594 8.57675 1.20077 10.185 2.80952C11.7937 4.41827 11.9085 5.68198 11.9085 5.68198M7.69546 3.00127C7.69546 3.00127 8.23171 3.15402 9.03608 3.9584C9.84046 4.76277 9.99375 5.29902 9.99375 5.29902" stroke="#515151" stroke-width="0.813138" stroke-linecap="round"/>
<path d="M8.47438 8.42175L8.72083 8.16175L8.1315 7.60221L7.88504 7.86275L8.47438 8.42175ZM9.53279 8.05234L10.5674 8.64871L10.9731 7.944L9.93796 7.34817L9.53279 8.05234ZM10.7673 9.88317L9.99809 10.693L10.5869 11.253L11.356 10.4433L10.7673 9.88317ZM9.53496 10.953C8.75767 11.0293 6.72913 10.9643 4.52779 8.64709L3.939 9.20609C6.33804 11.7319 8.62658 11.8597 9.61458 11.7617L9.53496 10.953ZM4.52779 8.64709C2.42829 6.43655 2.07621 4.57159 2.03233 3.75367L1.22092 3.79755C1.27508 4.79963 1.69975 6.84875 3.939 9.20609L4.52779 8.64709ZM5.27313 5.0515L5.42804 4.88792L4.83925 4.32838L4.68379 4.49196L5.27313 5.0515ZM5.55046 2.85125L4.86742 1.886L4.20388 2.35509L4.88638 3.32088L5.55046 2.85125ZM2.55504 1.67692L1.70571 2.57284L2.29504 3.13238L3.14546 2.237L2.55504 1.67692ZM4.97846 4.77146C4.88097 4.67751 4.78256 4.58452 4.68325 4.4925L4.68217 4.49359L4.68054 4.49521C4.67103 4.50526 4.66199 4.51574 4.65346 4.52663C4.60036 4.59691 4.55835 4.67491 4.52888 4.75792C4.47579 4.90688 4.44763 5.10405 4.48338 5.34996C4.55379 5.83313 4.87067 6.48259 5.69779 7.35413L6.28713 6.79405C5.51363 5.97992 5.32296 5.47888 5.28721 5.23188C5.26988 5.11271 5.28721 5.05042 5.29425 5.03038L5.29858 5.02009C5.29416 5.02723 5.28909 5.03394 5.28342 5.04013C5.28024 5.0438 5.27699 5.04741 5.27367 5.05096C5.27367 5.05096 5.27258 5.05096 4.97846 4.77146ZM5.69779 7.35413C6.52275 8.22296 7.14567 8.56367 7.62071 8.64113C7.865 8.68067 8.06271 8.64871 8.21221 8.58967C8.29504 8.55715 8.37205 8.51142 8.44025 8.45425C8.44691 8.44829 8.45342 8.44215 8.45975 8.43584L8.46733 8.42825C8.46861 8.42719 8.46988 8.4261 8.47113 8.425L8.47275 8.42338L8.47329 8.4223C8.47329 8.4223 8.47438 8.42175 8.17971 8.14171C7.88504 7.86221 7.88558 7.86167 7.88558 7.86113L7.88667 7.86059L7.88775 7.85896C7.88867 7.85807 7.88957 7.85717 7.89046 7.85625L7.89588 7.85084C7.90223 7.8447 7.90893 7.83891 7.91592 7.8335C7.92133 7.83025 7.92079 7.83134 7.91375 7.83405C7.90292 7.83838 7.85417 7.85571 7.75125 7.83892C7.5335 7.80317 7.06333 7.61142 6.28713 6.79405L5.69779 7.35413ZM4.86742 1.886C4.31817 1.10925 3.21967 0.977629 2.55558 1.67746L3.14383 2.237C3.42713 1.93909 3.92654 1.96238 4.20388 2.35509L4.86742 1.886ZM2.03233 3.75367C2.02042 3.537 2.11521 3.32088 2.29504 3.13238L1.70571 2.57284C1.41538 2.87834 1.19438 3.30246 1.22092 3.79755L2.03233 3.75367ZM9.99754 10.6935C9.84642 10.8528 9.68879 10.9378 9.53496 10.953L9.61458 11.7617C10.0192 11.7221 10.3469 11.506 10.5869 11.253L9.99754 10.6935ZM5.42804 4.88846C5.95238 4.3365 5.98921 3.47309 5.55046 2.8518L4.88692 3.32088C5.1155 3.64425 5.08029 4.07488 4.83925 4.32838L5.42804 4.88846ZM10.5674 8.64871C11.0121 8.90492 11.0993 9.53434 10.7673 9.88371L11.356 10.4433C12.0629 9.699 11.8571 8.45317 10.9731 7.944L10.5674 8.64871ZM8.72083 8.1623C8.92938 7.94238 9.25492 7.89309 9.53279 8.05288L9.93796 7.34871C9.34267 7.00638 8.60546 7.10496 8.1315 7.6033L8.72083 8.1623Z" fill="#515151"/>
</svg>
