<?xml version="1.0" encoding="UTF-8"?>
<svg id="Layer_1" data-name="Layer 1" xmlns="http://www.w3.org/2000/svg" xmlns:xlink="http://www.w3.org/1999/xlink" version="1.1" viewBox="0 0 12 12">
  <defs>
    <style>
      .cls-1 {
        clip-path: url(#clippath);
      }

      .cls-2 {
        fill: none;
      }

      .cls-2, .cls-3 {
        stroke-width: 0px;
      }

      .cls-3 {
        fill: #534d59;
      }
    </style>
    <clipPath id="clippath">
      <rect class="cls-2" x=".9" y=".9" width="10.2" height="10.2"/>
    </clipPath>
  </defs>
  <g class="cls-1">
    <path class="cls-3" d="M6.9,6.2l1.5-1.5c0,0,.1-.2.1-.3s0-.2-.1-.3c-.1-.1-.2-.2-.3-.2s-.2,0-.3.1l-1.5,1.5-1.5-1.5c0,0-.2-.1-.3-.1s-.2,0-.3.1c0,.1-.1.2-.1.3s0,.2.1.3l1.5,1.5-1.5,1.5c-.2.2-.2.5,0,.6.1,0,.2.1.3.1s.2,0,.3-.1l1.5-1.5,1.5,1.5c0,0,.2.1.3.1s.2,0,.3-.1c.2-.2.2-.5,0-.6l-1.5-1.5Z"/>
  </g>
</svg>