<svg width="12" height="6" viewBox="0 0 12 6" fill="none" xmlns="http://www.w3.org/2000/svg">
<path d="M11.9411 3.97903L11.8259 4.46863C11.7342 4.85871 11.5038 5.20211 11.1775 5.43474C10.8513 5.66737 10.4515 5.77333 10.0529 5.73284L9.00045 5.62604C8.65758 5.5914 8.33415 5.45027 8.07557 5.22247C7.81699 4.99466 7.63622 4.6916 7.55864 4.35583L7.32464 3.34423C7.32016 3.32481 7.31186 3.30648 7.30022 3.2903C7.28858 3.27413 7.27383 3.26044 7.25684 3.25003C7.06424 3.13183 6.63704 3.05803 5.99863 3.05803C5.52643 3.05803 5.16703 3.09823 4.92643 3.17143C4.84243 3.19723 4.78363 3.22243 4.74643 3.24103L4.69183 3.26983L4.68343 3.29383L4.43803 4.35583C4.36062 4.69154 4.18009 4.99459 3.92173 5.2225C3.66337 5.4504 3.34016 5.59172 2.99742 5.62664L1.94981 5.73284C1.55245 5.77318 1.15394 5.66801 0.828227 5.43685C0.50251 5.20569 0.271695 4.86424 0.178606 4.47583L0.0616058 3.98563C-0.0321528 3.59324 -0.0186862 3.18287 0.100595 2.79747C0.219877 2.41207 0.440585 2.06584 0.739609 1.79502C1.87901 0.761215 3.63702 0.257812 5.99863 0.257812C8.36384 0.257812 10.1237 0.763015 11.2637 1.79982C11.5435 2.05423 11.7546 2.37506 11.8776 2.73267C12.0007 3.09028 12.0315 3.47312 11.9675 3.84583L11.9411 3.97903ZM11.0849 3.67063C11.119 3.45015 11.0979 3.22465 11.0236 3.0143C10.9493 2.80395 10.8239 2.6153 10.6589 2.46522C9.70965 1.60242 8.16104 1.15782 5.99863 1.15782C3.83982 1.15782 2.29242 1.60122 1.34261 2.46102C1.16337 2.62355 1.03109 2.83126 0.959632 3.06242C0.888172 3.29358 0.880152 3.5397 0.93641 3.77503L1.05341 4.26583C1.09564 4.44248 1.20053 4.59781 1.34862 4.70297C1.4967 4.80813 1.67792 4.85598 1.85861 4.83763L2.90622 4.73083C3.06191 4.71495 3.20874 4.65076 3.32612 4.54725C3.44351 4.44374 3.52557 4.30611 3.56082 4.15363L3.81462 3.06163L3.84042 2.98002C4.06542 2.38122 4.79443 2.15802 5.99863 2.15802C6.78884 2.15802 7.35764 2.25642 7.72664 2.48202C7.96724 2.62902 8.13884 2.86722 8.20184 3.14203L8.43585 4.15303C8.50785 4.46623 8.77125 4.69843 9.09045 4.73083L10.1435 4.83763C10.3247 4.856 10.5064 4.8078 10.6546 4.70203C10.8029 4.59626 10.9076 4.44015 10.9493 4.26283L11.0645 3.77323L11.0849 3.67063Z" fill="#60B158"/>
</svg>
