<svg width="13" height="13" viewBox="0 0 13 13" fill="none" xmlns="http://www.w3.org/2000/svg">
<path d="M8.39576 1.49023C8.39576 1.38249 8.35295 1.27916 8.27677 1.20297C8.20058 1.12679 8.09725 1.08398 7.98951 1.08398C7.88176 1.08398 7.77843 1.12679 7.70224 1.20297C7.62606 1.27916 7.58326 1.38249 7.58326 1.49023V5.55273C7.58326 5.66048 7.62606 5.76381 7.70224 5.84C7.77843 5.91618 7.88176 5.95898 7.98951 5.95898C8.09725 5.95898 8.20058 5.91618 8.27677 5.84C8.35295 5.76381 8.39576 5.66048 8.39576 5.55273V1.49023ZM10.5624 1.49023C10.5624 1.38249 10.5196 1.27916 10.4434 1.20297C10.3672 1.12679 10.2639 1.08398 10.1562 1.08398C10.0484 1.08398 9.9451 1.12679 9.86891 1.20297C9.79272 1.27916 9.74992 1.38249 9.74992 1.49023V5.55273C9.74992 5.66048 9.79272 5.76381 9.86891 5.84C9.9451 5.91618 10.0484 5.95898 10.1562 5.95898C10.2639 5.95898 10.3672 5.91618 10.4434 5.84C10.5196 5.76381 10.5624 5.66048 10.5624 5.55273V1.49023ZM5.64842 3.04969L5.15984 1.96311C5.01159 1.63315 4.74834 1.36841 4.41922 1.2183C4.0901 1.06819 3.7176 1.04298 3.37126 1.14736L2.73913 1.33803L2.62755 1.3754C2.3186 1.48845 2.04174 1.67485 1.82076 1.91856C1.59978 2.16228 1.44131 2.45602 1.35896 2.77453C0.970589 4.27603 1.39146 6.06569 2.59126 8.14407C3.78942 10.2187 5.1268 11.478 6.61909 11.8946C6.95693 11.9887 7.3134 11.9938 7.65379 11.9094C7.99418 11.8249 8.3069 11.6537 8.56151 11.4125L9.04196 10.958C9.30395 10.7099 9.46697 10.3751 9.50075 10.0159C9.53452 9.65666 9.43674 9.29737 9.22559 9.00478L8.53171 8.04332C8.34971 7.79123 8.09339 7.60241 7.79867 7.50333C7.50396 7.40425 7.18562 7.39987 6.8883 7.49082L5.79955 7.8234C5.76867 7.83261 5.69663 7.80715 5.56501 7.69123C5.37705 7.5244 5.15605 7.22757 4.91176 6.80453C4.57592 6.22223 4.42967 5.80353 4.45405 5.58848C4.45751 5.55643 4.4723 5.52665 4.49576 5.50453L5.30555 4.74944C5.53297 4.53736 5.68831 4.25942 5.7498 3.9546C5.81129 3.64978 5.77584 3.33335 5.64842 3.04969ZM2.97367 2.11586L3.6058 1.92573C3.76313 1.8784 3.9323 1.88989 4.08178 1.95805C4.23127 2.02622 4.35087 2.14641 4.4183 2.29623L4.90688 3.38282C4.9648 3.51169 4.98095 3.65545 4.95307 3.79397C4.9252 3.93248 4.85469 4.0588 4.75142 4.15523L3.94163 4.91032C3.77624 5.06471 3.67153 5.27317 3.64642 5.49803C3.59767 5.93244 3.79159 6.48982 4.20813 7.21078C4.82563 8.28057 5.40034 8.79028 6.03409 8.60123L7.12555 8.26757C7.26078 8.22614 7.4056 8.2281 7.53967 8.27317C7.67373 8.31825 7.79031 8.40418 7.87305 8.5189L8.56638 9.48036C8.6625 9.61339 8.70703 9.77681 8.69169 9.94021C8.67635 10.1036 8.60217 10.2559 8.48296 10.3687L8.00305 10.8232C7.85021 10.9678 7.66252 11.0704 7.45824 11.121C7.25397 11.1716 7.04007 11.1685 6.83738 11.1119C5.58234 10.7614 4.39663 9.64557 3.29488 7.73728C2.19205 5.82736 1.81884 4.24082 2.14546 2.97819C2.19392 2.79044 2.28648 2.61696 2.41545 2.47216C2.54443 2.32736 2.70609 2.21542 2.88701 2.14565L2.97367 2.11586Z" fill="#FFC700"/>
</svg>
