<svg width="13" height="13" viewBox="0 0 13 13" fill="none" xmlns="http://www.w3.org/2000/svg">
<path d="M9.75012 1.21875C9.75012 1.11101 9.79292 1.00767 9.8691 0.931488C9.94529 0.855301 10.0486 0.8125 10.1564 0.8125C10.2641 0.8125 10.3674 0.855301 10.4436 0.931488C10.5198 1.00767 10.5626 1.11101 10.5626 1.21875V3.25H12.5939C12.7016 3.25 12.8049 3.2928 12.8811 3.36899C12.9573 3.44517 13.0001 3.54851 13.0001 3.65625C13.0001 3.76399 12.9573 3.86733 12.8811 3.94351C12.8049 4.0197 12.7016 4.0625 12.5939 4.0625H10.5626V6.09375C10.5626 6.20149 10.5198 6.30483 10.4436 6.38101C10.3674 6.4572 10.2641 6.5 10.1564 6.5C10.0486 6.5 9.94529 6.4572 9.8691 6.38101C9.79292 6.30483 9.75012 6.20149 9.75012 6.09375V4.0625H7.71887C7.61112 4.0625 7.50779 4.0197 7.4316 3.94351C7.35542 3.86733 7.31262 3.76399 7.31262 3.65625C7.31262 3.54851 7.35542 3.44517 7.4316 3.36899C7.50779 3.2928 7.61112 3.25 7.71887 3.25H9.75012V1.21875ZM3.87168 1.9955C2.77074 2.33188 2.05005 3.25162 2.20524 4.27213C2.39757 5.52875 2.82598 6.73763 3.46787 7.83494C4.10353 8.9337 4.93647 9.90574 5.92487 10.7022C6.73087 11.3498 7.88949 11.1897 8.73205 10.4032C8.88046 10.2651 8.97058 10.0755 8.98402 9.87321C8.99745 9.67089 8.9332 9.47107 8.80437 9.3145L8.16087 8.53288C8.05794 8.40795 7.92004 8.31661 7.76485 8.27057C7.60967 8.22454 7.44427 8.22591 7.28987 8.2745L5.93055 8.70188C5.86361 8.72294 5.79235 8.72631 5.72371 8.71164C5.65508 8.69697 5.59142 8.66478 5.53893 8.61819L5.50643 8.58894L5.42762 8.51337C5.04846 8.14358 4.72055 7.72467 4.45262 7.26781C4.17276 6.77564 3.96482 6.24593 3.83512 5.69481L3.82537 5.65256C3.81112 5.58366 3.81502 5.51225 3.83666 5.44531C3.85831 5.37837 3.89698 5.3182 3.94887 5.27069L4.99862 4.30788C5.11792 4.19836 5.20177 4.05569 5.23941 3.89818C5.27705 3.74066 5.26676 3.5755 5.20987 3.42388L4.85724 2.48137C4.7852 2.29032 4.6432 2.13381 4.46003 2.04359C4.27687 1.95336 4.06705 1.93617 3.87168 1.9955ZM5.54949 4.90669L4.67849 5.70619C4.79266 6.10869 4.95355 6.49646 5.15787 6.86156C5.36983 7.22236 5.62524 7.55581 5.91837 7.85444L7.04693 7.49937C7.35573 7.40219 7.68653 7.39945 7.9969 7.49152C8.30727 7.58359 8.58307 7.76627 8.78893 8.01613L9.43243 8.79775C9.69297 9.11404 9.82299 9.51783 9.79596 9.92671C9.76894 10.3356 9.58689 10.7188 9.28699 10.998C8.23887 11.9746 6.62524 12.3061 5.41624 11.3352C4.3502 10.4764 3.45171 9.42835 2.76587 8.24362C2.07265 7.0579 1.61006 5.75172 1.40249 4.394C1.1693 2.86244 2.26699 1.63638 3.63443 1.21875C4.02755 1.09889 4.45156 1.13323 4.82026 1.31479C5.18897 1.49635 5.4747 1.81151 5.61937 2.19619L5.97199 3.13869C6.08578 3.44193 6.10636 3.77227 6.03108 4.08729C5.9558 4.40231 5.78809 4.68765 5.54949 4.90669Z" fill="#006FFD"/>
</svg>
