<svg width="10" height="10" viewBox="0 0 10 10" fill="none" xmlns="http://www.w3.org/2000/svg">
<path d="M5 5.375C5.20711 5.375 5.375 5.20711 5.375 5C5.375 4.79289 5.20711 4.625 5 4.625C4.79289 4.625 4.625 4.79289 4.625 5C4.625 5.20711 4.79289 5.375 5 5.375Z" stroke="#534D59" stroke-width="0.75" stroke-linecap="round" stroke-linejoin="round"/>
<path d="M5 2.75C5.20711 2.75 5.375 2.58211 5.375 2.375C5.375 2.16789 5.20711 2 5 2C4.79289 2 4.625 2.16789 4.625 2.375C4.625 2.58211 4.79289 2.75 5 2.75Z" stroke="#534D59" stroke-width="0.75" stroke-linecap="round" stroke-linejoin="round"/>
<path d="M5 8C5.20711 8 5.375 7.83211 5.375 7.625C5.375 7.41789 5.20711 7.25 5 7.25C4.79289 7.25 4.625 7.41789 4.625 7.625C4.625 7.83211 4.79289 8 5 8Z" stroke="#534D59" stroke-width="0.75" stroke-linecap="round" stroke-linejoin="round"/>
</svg>
